#N canvas 125 257 762 453 10;
#X obj 93 258 cnv 15 140 20 empty empty empty 20 12 0 14 -261234 -66577
0;
#X obj 98 282 print;
#X msg 80 91 any arguments 1 2 3;
#X msg 255 206 symbol /newPrefix;
#X obj 98 260 OSCprepend /prefix;
#X msg 146 153 /additional/path 1 2 3;
#X text 384 208 <- set the OSC path;
#X msg 269 235 symbol newPrefix;
#X text 61 330 See also:;
#X text 137 375 splits an OSC message into the path component and arguments
;
#X text 391 237 <- note: slash gets added automatically;
#X text 51 25 OSCprepend adds an OSC path to a list \, so it can be
sent to a receiver.;
#X text 144 355 converts an entire list into one OSC path symbol;
#X text 130 123 lists that already start with OSC symbols get appended
to the end of the OSC path:;
#X obj 64 355 OSCsymbol;
#X obj 64 375 OSCsplit;
#X connect 2 0 4 0;
#X connect 3 0 4 1;
#X connect 4 0 1 0;
#X connect 5 0 4 0;
#X connect 7 0 4 1;
