#N canvas 344 22 947 777 10;
#X obj 211 277 OSCtx;
#X text 341 372 1);
#X text 403 404 2);
#X text 644 371 1);
#X text 703 402 2);
#X text 257 278 (default is UDP);
#X obj 678 439 bng 12 250 50 0 empty empty empty 17 7 0 10 -262144
-1 -1;
#X obj 363 441 bng 12 250 50 0 empty empty empty 17 7 0 10 -262144
-1 -1;
#X obj 192 64 bng 15 250 50 0 empty empty empty 17 7 0 10 -262144 -1
-1;
#X text 213 65 <- bang prints status to the Pd window;
#X msg 297 137 /foo/sheefa 1 2 3;
#X text 433 139 <- send messages like this;
#X obj 706 471 tgl 12 0 empty empty empty 17 7 0 10 -262144 -1 -1 12584
12584;
#X obj 211 296 tgl 12 0 empty empty empty 17 7 0 10 -262144 -1 -1 0
10426;
#X obj 406 472 tgl 12 0 empty empty empty 17 7 0 10 -262144 -1 -1 17307
17307;
#X msg 320 177 [;
#X msg 320 199 /a/bundle has started;
#X msg 320 239 ];
#X text 353 178 <- start an OSC bundle with this;
#X text 353 240 <- close the bundle and send;
#X msg 77 154 disconnect;
#X obj 706 451 OSCtx;
#X obj 406 453 OSCtx;
#X text 81 372 1);
#X text 143 404 2);
#X obj 103 441 bng 12 250 50 0 empty empty empty 17 7 0 10 -262144
-1 -1;
#X obj 146 453 OSCtx tcp;
#X msg 423 404 /some/broadcast message;
#X msg 722 402 /some/multicast message;
#X text 226 96 1);
#X text 276 137 2);
#X text 437 96 <- set destination host and port;
#X text 454 108 (could be broadcast/multicast);
#X msg 163 402 /tcp/msg message;
#X obj 206 475 print tcp_response;
#X obj 146 554 sel 0;
#X obj 178 646 tgl 12 0 empty empty empty 17 7 0 10 -262144 -1 -1 13709
13709;
#X obj 178 626 OSCtx tcp;
#X msg 247 96 connect localhost 9000;
#X floatatom 146 522 6 0 0 0 - - -;
#X text 342 684 Multicast receiver:;
#X obj 343 706 OSCrx 224.0.0.100 9009;
#X obj 343 729 print Multicast_MSG;
#X obj 83 706 OSCrx 9000;
#X text 82 684 UDP receiver:;
#X obj 83 729 print UDP_MSG;
#X text 612 684 TCP receiver:;
#X obj 613 729 print TCP_MSG;
#X obj 613 706 OSCrx 9001 tcp;
#X text 62 751 (includes broadcast);
#X text 51 25 OSCtx sends an OSC message over the network. You;
#X msg 108 372 connect localhost 9001;
#X msg 367 373 connect 255.255.255.255 9000;
#X msg 667 371 connect 224.0.0.100 9009;
#X text 200 523 <- for TCP \, the status outlet provides the outgoing
TCP port (or 0 if diconnected). This allows a sender/receiver pair
to be formed \, as shown below:;
#X msg 178 583 connect localhost \$1;
#X text 82 350 TCP sender:;
#X text 343 350 Broadcast sender:;
#X text 644 348 Multicast sender:;
#X msg 191 605 /tcp/msg message back to first TCP sender;
#X msg 320 219 /adding/some message;
#X connect 0 0 13 0;
#X connect 6 0 21 0;
#X connect 7 0 22 0;
#X connect 8 0 0 0;
#X connect 10 0 0 0;
#X connect 15 0 0 0;
#X connect 16 0 0 0;
#X connect 17 0 0 0;
#X connect 20 0 0 0;
#X connect 21 0 12 0;
#X connect 22 0 14 0;
#X connect 25 0 26 0;
#X connect 26 0 39 0;
#X connect 26 1 34 0;
#X connect 27 0 22 0;
#X connect 28 0 21 0;
#X connect 33 0 26 0;
#X connect 35 1 55 0;
#X connect 37 0 36 0;
#X connect 38 0 0 0;
#X connect 39 0 35 0;
#X connect 41 0 42 0;
#X connect 43 0 45 0;
#X connect 48 0 47 0;
#X connect 51 0 26 0;
#X connect 52 0 22 0;
#X connect 53 0 21 0;
#X connect 55 0 37 0;
#X connect 59 0 37 0;
#X connect 60 0 0 0;
